# xmcd CD database file
# Copyright (C) 1996 Ti Kan
#
# Track frame offsets:
#  183
#  13708
#  26535
#  38458
#  49783
#  61033
#  74083
#  88258
#  107008
#  133708
#
# Disc length: 1942 seconds
#
# Revision: 1
# Processed by: cddbd v1.4b41PL1 Copyright (c) Steve Scherf et al.
# Submitted via: CDWizzard Release:4.12
#
DISCID=8107940a
DTITLE=Memphis Slim - The Legacy Of The Blues:  Vol. 7
DYEAR=1900
DGENRE=
TTITLE0=Everyday I Have The Blues
TTITLE1=I Am The Blues
TTITLE2=A Long Time Gone
TTITLE3=Ballin' The Jack
TTITLE4=Lets Get With It
TTITLE5=Only Fools Have Fun
TTITLE6=Broadway Boogie
TTITLE7=Gambler's Blues
TTITLE8=Freedom
TTITLE9=Sassy Mae
EXTD=
EXTT0=
EXTT1=
EXTT2=
EXTT3=
EXTT4=
EXTT5=
EXTT6=
EXTT7=
EXTT8=
EXTT9=
PLAYORDER=
